<svg xmlns="http://www.w3.org/2000/svg" viewBox="0 0 800 1000">
<rect width="800" height="1000" fill="#f2efe9"/>
<rect x="0" y="0" width="800" height="140" fill="#bae6fd" opacity="0.6"/>
<text x="400" y="60" text-anchor="middle" font-family="sans-serif" font-size="26" fill="#0369a1" opacity="0.55">Océan Atlantique</text>
<g stroke="#e2ddd0" stroke-width="10" fill="none">
<path d="M0 220 H800"/><path d="M0 380 H800"/><path d="M0 540 H800"/><path d="M0 700 H800"/><path d="M0 860 H800"/>
<path d="M120 140 V1000"/><path d="M320 140 V1000"/><path d="M520 140 V1000"/><path d="M700 140 V1000"/>
</g>
<g fill="#e7e2d4">
<rect x="20" y="160" width="80" height="40" rx="6"/><rect x="150" y="250" width="140" height="90" rx="6"/>
<rect x="340" y="170" width="150" height="70" rx="6"/><rect x="550" y="160" width="120" height="50" rx="6"/>
<rect x="40" y="420" width="60" height="90" rx="6"/><rect x="160" y="410" width="130" height="100" rx="6"/>
<rect x="350" y="420" width="140" height="90" rx="6"/><rect x="560" y="400" width="110" height="110" rx="6"/>
<rect x="30" y="580" width="70" height="90" rx="6"/><rect x="150" y="580" width="150" height="90" rx="6"/>
<rect x="360" y="590" width="120" height="80" rx="6"/><rect x="560" y="570" width="120" height="100" rx="6"/>
<rect x="40" y="740" width="230" height="90" rx="6"/><rect x="350" y="750" width="140" height="80" rx="6"/>
<rect x="560" y="730" width="120" height="100" rx="6"/>
</g>
<circle cx="180" cy="300" r="90" fill="#0f766e" opacity="0.05"/>
<circle cx="430" cy="480" r="100" fill="#d97706" opacity="0.05"/>
<circle cx="640" cy="640" r="90" fill="#0f766e" opacity="0.05"/>
</svg>
